<svg xmlns="http://www.w3.org/2000/svg" viewBox="0 0 32 32">
  <defs>
    <linearGradient id="g" x1="0" y1="0" x2="1" y2="1">
      <stop offset="0" stop-color="#3FE0C8"/>
      <stop offset="1" stop-color="#5A8CFF"/>
    </linearGradient>
  </defs>
  <rect width="32" height="32" rx="7" fill="#0B0E11"/>
  <path d="M16 4.5 L26 9.5 L26 17.5 C26 24 16 28.5 16 28.5 C16 28.5 6 24 6 17.5 L6 9.5 Z" fill="url(#g)" opacity="0.95"/>
  <path d="M16 8.5 L22.5 12 V17.5 C22.5 21.5 16 25.5 16 25.5 C16 25.5 9.5 21.5 9.5 17.5 V12 Z" fill="#0B0E11" opacity="0.9"/>
  <g stroke="#3FE0C8" stroke-linecap="round" fill="none" stroke-width="1.4">
    <path d="M12.5 15.5 Q16 12 19.5 15.5"/>
    <path d="M13.8 18 Q16 16 18.2 18"/>
    <circle cx="16" cy="20.5" r="1.2" fill="#3FE0C8" stroke="none"/>
  </g>
</svg>
